<?xml version="1.0" encoding="utf-8"?>
<!-- Generator: Adobe Illustrator 18.1.1, SVG Export Plug-In . SVG Version: 6.00 Build 0)  -->
<!DOCTYPE svg PUBLIC "-//W3C//DTD SVG 1.1//EN" "http://www.w3.org/Graphics/SVG/1.1/DTD/svg11.dtd">
<svg version="1.1" id="Layer_1" xmlns="http://www.w3.org/2000/svg" xmlns:xlink="http://www.w3.org/1999/xlink" x="0px" y="0px"
	 viewBox="0 206.8 960 146.4" enable-background="new 0 206.8 960 146.4" xml:space="preserve">
<linearGradient id="SVGID_1_" gradientUnits="userSpaceOnUse" x1="335.55" y1="474.9178" x2="335.55" y2="621.6704" gradientTransform="matrix(1.8576 0 0 -1.8576 0 1247.0588)">
	<stop  offset="0" style="stop-color:#181A36"/>
	<stop  offset="0.33" style="stop-color:#194E81"/>
	<stop  offset="1" style="stop-color:#00AEEF"/>
</linearGradient>
<path fill="url(#SVGID_1_)" d="M524.8,215.7l9.7,25.8h12.1l5.2-18.9l5.2,18.9H569l10-25.8h-8.4l-6.9,19.3h-1.5l-5.9-19.3h-9.5
	l-5.8,19.3h-1.5l-6.9-19.3H524.8L524.8,215.7z M608.9,241.4l-2.2-4.3h-17.1l-2.2,4.3h-8.9l13.6-25.8h12.3l13.6,25.8H608.9
	L608.9,241.4z M604.1,231.5l-5-9.8h-1.5l-5,9.8H604.1L604.1,231.5z M617.8,215.7v6.5h11.5v19.1h8.2v-19.1H649v-6.5H617.8
	L617.8,215.7z M654.6,215.7v25.8h28.6v-6.1h-21v-4.1h19.7v-5.8h-19.7v-3.9H683v-5.9H654.6L654.6,215.7z M689.7,241.4h7.8v-6.5h11.1
	c3.2,0,3.9,0,4.3,0.7c0.6,0.7,0.7,1.7,0.7,4.5v1.3h7.8v-2.4c0.2-5.9-0.6-7.1-4.5-7.6c1.7-0.2,2.4-0.6,3.2-1.1
	c1.3-1.1,1.7-2.6,1.7-6.3c0-4.5-0.6-6.1-2.6-7.4c-1.7-0.9-1.7-0.9-10.6-0.9h-18.9V241.4L689.7,241.4z M697.5,228.5V222h11
	c3.7,0,3.7,0,4.3,0.4c0.7,0.4,1.1,1.1,1.1,2.8s-0.2,2.4-0.9,2.8c-0.6,0.4-0.6,0.4-4.5,0.4h-11V228.5z"/>
<linearGradient id="SVGID_2_" gradientUnits="userSpaceOnUse" x1="385.8" y1="518.5055" x2="385.8" y2="521.7514" gradientTransform="matrix(1.8576 0 0 -1.8576 0 1247.0588)">
	<stop  offset="0" style="stop-color:#181A36"/>
	<stop  offset="0.33" style="stop-color:#194E81"/>
	<stop  offset="1" style="stop-color:#00AEEF"/>
</linearGradient>
<path fill="url(#SVGID_2_)" d="M527,267.9v25.8h28.6v-6.1h-21v-4.1h19.7v-5.8h-19.7v-3.7h20.8v-6.1H527L527,267.9z M562.1,267.9
	v25.8h8l-0.2-19.1h0.9l13.6,19.1H598v-25.8h-8l0.2,19.1h-0.7l-13.6-19.1H562.1L562.1,267.9z M621,279.1v5.2h10.2c0,2-0.2,2.4-0.6,3
	c-0.7,0.7-2.2,0.7-8.9,0.7h-4.8c-2,0-2.8-0.2-3.3-0.7c-0.9-0.7-1.1-2-1.1-6.3c0-6.7,0-6.7,9.3-6.7c5.9,0,7.8,0.2,8.5,0.7
	c0.6,0.4,0.6,0.7,0.6,2.2h7.8c0-3.7-0.4-5.4-1.5-6.7c-1.7-2-5.2-2.6-14.9-2.6c-8.9,0-13.2,0.6-15,1.9c-2.2,1.5-2.8,4.1-2.8,11
	c0,8.5,0.4,10.4,2.8,11.9c2.2,1.5,5,1.9,13.7,1.9c6.9,0,9.7-0.2,12.4-0.7c3.2-0.6,4.8-2.4,5-5.4c0.2-1.3,0.2-5.8,0.2-8.2v-0.7H621
	V279.1z M646.1,267.9v25.8h8.2v-25.8H646.1L646.1,267.9z M661.9,267.9v25.8h8l-0.2-19.1h0.9l13.6,19.1h13.6v-25.8h-8l0.2,19.1h-0.7
	l-13.6-19.1H661.9L661.9,267.9z M705.1,267.9v25.8h28.6v-6.1h-21v-4.1h19.7v-5.8h-19.7v-3.7h21v-6.1H705.1L705.1,267.9z
	 M740.2,267.9v25.8h28.6v-6.1h-21v-4.1h19.7v-5.8h-19.7v-3.7h20.8v-6.1H740.2L740.2,267.9z M775.4,293.7h7.8v-6.5h11.1
	c3.2,0,3.9,0,4.3,0.7c0.6,0.7,0.7,1.7,0.7,4.5v1.3h7.8v-2.4c0.2-5.9-0.6-7.1-4.5-7.6c1.7-0.2,2.4-0.6,3.2-1.1
	c1.3-1.1,1.7-2.6,1.7-6.3c0-4.5-0.6-6.1-2.6-7.4c-1.7-0.9-1.7-0.9-10.6-0.9h-18.9V293.7L775.4,293.7z M783.2,280.7v-6.3h11
	c3.7,0,3.7,0,4.3,0.4c0.7,0.4,1.1,1.1,1.1,2.8c0,1.7-0.2,2.4-0.9,2.8c-0.6,0.4-0.6,0.4-4.5,0.4H783.2L783.2,280.7z M814,267.9v25.8
	h8.2v-25.8H814L814,267.9z M829.8,267.9v25.8h8l-0.2-19.1h0.9l13.6,19.1h13.6v-25.8h-8l0.2,19.1h-0.7l-13.6-19.1H829.8L829.8,267.9z
	 M888.7,279.1v5.2h10.2c0,2-0.2,2.4-0.6,3c-0.7,0.7-2.2,0.7-8.9,0.7h-4.8c-2,0-2.8-0.2-3.3-0.7c-0.9-0.7-1.1-2-1.1-6.3
	c0-6.7,0-6.7,9.3-6.7c5.9,0,7.8,0.2,8.5,0.7c0.6,0.4,0.6,0.7,0.6,2.2h7.8c0-3.7-0.4-5.4-1.5-6.7c-1.7-2-5.2-2.6-14.9-2.6
	c-8.9,0-13.2,0.6-15,1.9c-2.2,1.5-2.8,4.1-2.8,11c0,8.5,0.4,10.4,2.8,11.9c2.2,1.5,5,1.9,13.7,1.9c6.9,0,9.7-0.2,12.4-0.7
	c3.2-0.6,4.8-2.4,5-5.4c0.2-1.3,0.2-5.8,0.2-8.2v-0.7h-17.6V279.1z"/>
<linearGradient id="SVGID_3_" gradientUnits="userSpaceOnUse" x1="399.8" y1="490.8132" x2="399.8" y2="493.1123" gradientTransform="matrix(1.8576 0 0 -1.8576 0 1247.0588)">
	<stop  offset="0" style="stop-color:#181A36"/>
	<stop  offset="0.33" style="stop-color:#194E81"/>
	<stop  offset="1" style="stop-color:#00AEEF"/>
</linearGradient>
<path fill="url(#SVGID_3_)" d="M525.3,320.3v6.5h11.5v19.3h8.2v-19.3h11.5v-6.5H525.3L525.3,320.3z M562.1,320.3v25.8h28.6V340h-21
	v-4.1h19.7v-5.8h-19.7v-3.7h21v-6.1H562.1L562.1,320.3z M621.9,336.1c0,3.9-0.2,3.9-8.7,3.9c-8.4,0-8.4-0.2-8.4-6.7
	c0-3.9,0.4-5.4,1.3-6.1c0.7-0.7,2.2-0.7,7.1-0.7c1.9,0,4.1,0,5.4,0.2c1.7,0.2,2.2,0.4,2.6,0.7c0.4,0.4,0.4,0.7,0.4,2.2h7.8v-1.3
	c0-4.3-0.9-6.1-3.2-7.2c-1.7-0.9-4.3-1.1-10.8-1.1c-13.2,0-16.2,0.7-17.6,3.9c-0.6,1.5-0.7,3.7-0.7,9.5c0,3,0,5.2,0.2,6.3
	c0.4,3,1.1,4.5,3,5.4c2,1.1,5.4,1.3,15.2,1.3c5.9,0,8.7-0.2,10.8-0.9c2.6-0.9,3.7-2.8,3.7-6.9c0-0.4,0-0.9,0-2.4H621.9L621.9,336.1z
	 M636.4,320.3v25.8h8.2v-9.3h17.6v9.3h8.2v-25.8h-8.2v9.3h-17.6v-9.3H636.4L636.4,320.3z M678.2,320.3v25.8h8L686,327h0.9l13.4,19.1
	h13.6v-25.8h-8l0.2,19.1h-0.7l-13.6-19.1H678.2L678.2,320.3z M738.6,319.9c-10.8,0-13.2,0.4-15,1.9c-1.9,1.5-2.6,4.1-2.6,11.3
	c0,7.6,0.6,10,2.6,11.7c2,1.5,4.5,1.9,15.2,1.9c10.6,0,13-0.4,15-1.9c2-1.5,2.6-4.1,2.6-11.5c0-7.4-0.6-10-2.6-11.5
	C751.8,320.3,749.3,319.9,738.6,319.9L738.6,319.9z M738.6,326.6c7.2,0,8.2,0.2,8.9,1.3c0.7,0.9,0.9,2.4,0.9,6.1
	c0,3.2-0.2,4.3-1.1,5c-0.9,0.7-2.4,0.9-8.5,0.9c-6.3,0-7.8-0.2-8.7-0.9c-0.9-0.7-1.1-1.9-1.1-5c0-3.3,0.2-4.8,0.7-5.8
	C730.2,326.8,731.1,326.6,738.6,326.6L738.6,326.6z M763.3,320.3v25.8h26.6v-6.5h-18.4v-19.3H763.3L763.3,320.3z M813.3,319.9
	c-10.8,0-13.2,0.4-15,1.9c-1.9,1.5-2.6,4.1-2.6,11.3c0,7.6,0.6,10,2.6,11.7c2,1.5,4.5,1.9,15.2,1.9c10.6,0,13-0.4,15-1.9
	c2-1.5,2.6-4.1,2.6-11.5c0-7.4-0.6-10-2.6-11.5C826.4,320.3,823.8,319.9,813.3,319.9L813.3,319.9z M813.3,326.6
	c7.2,0,8.2,0.2,8.9,1.3c0.7,0.9,0.9,2.4,0.9,6.1c0,3.2-0.2,4.3-1.1,5c-0.9,0.7-2.4,0.9-8.5,0.9c-6.3,0-7.8-0.2-8.7-0.9
	s-1.1-1.9-1.1-5c0-3.3,0.2-4.8,0.7-5.8C804.9,326.8,805.6,326.6,813.3,326.6L813.3,326.6z M853.6,331.5v5.2h10.2c0,2-0.2,2.4-0.6,3
	c-0.7,0.7-2.2,0.7-8.9,0.7h-4.8c-2,0-2.8-0.2-3.3-0.7c-0.9-0.7-1.1-2-1.1-6.3c0-6.7,0-6.7,9.3-6.7c5.9,0,7.8,0.2,8.5,0.7
	c0.6,0.4,0.6,0.7,0.6,2.2h7.8c0-3.7-0.4-5.4-1.5-6.7c-1.7-2-5.2-2.6-14.9-2.6c-8.9,0-13.2,0.6-15,1.9c-2.2,1.5-2.8,4.1-2.8,11
	c0,8.5,0.4,10.4,2.8,11.9c2.2,1.5,5,1.9,13.7,1.9c6.9,0,9.7-0.2,12.4-0.7c3.2-0.6,4.8-2.4,5-5.4c0.2-1.3,0.2-5.8,0.2-8.2v-0.7h-17.6
	V331.5z M878.5,320.3v25.8h8.2v-25.8H878.5L878.5,320.3z M894.2,320.3v25.8h28.6V340h-21v-4.1h19.7v-5.8h-19.7v-3.7h20.8v-6.1H894.2
	L894.2,320.3z M928.4,337.6v1.1c0,3.7,0.6,5.2,2.6,6.3c1.9,1.1,5,1.3,12.8,1.3c8,0,11.1-0.2,12.6-0.9c2.6-0.9,3.5-3.2,3.5-7.6
	c0-3.7-0.7-5.4-2.6-6.5c-1.7-0.9-3.3-1.1-11.7-1.5c-5.6-0.2-7.6-0.2-8.4-0.4c-0.7-0.2-1.1-0.7-1.1-1.7c0-1.9,0.6-2,7.1-2
	c5.9,0,6.9,0,7.4,0.6c0.4,0.4,0.6,0.7,0.6,2h7.6c0-0.6,0-1.1,0-1.1c0-3.2-0.7-4.8-2.4-5.9c-1.9-1.1-4.6-1.5-11.7-1.5
	c-9.3,0-11.5,0.2-13.6,1.3c-1.9,0.9-2.8,3.3-2.8,7.1c0,2.6,0.4,4.3,1.5,5.4c1.1,1.3,3,1.9,6.7,2c0.7,0,3.3,0.2,6.3,0.2
	c2.8,0.2,5.2,0.2,6.1,0.2c2.6,0,3.2,0.4,3.2,2c0,1.1-0.2,1.7-0.9,1.9c-0.7,0.4-1.7,0.4-7.6,0.4c-5.6,0-6.3,0-7.1-0.6
	c-0.6-0.4-0.7-0.9-0.7-2.4h-7.4V337.6z"/>
<radialGradient id="SVGID_4_" cx="132.9" cy="486.9692" r="105.9933" gradientTransform="matrix(1.8576 0 0 -1.8576 0 1247.0588)" gradientUnits="userSpaceOnUse">
	<stop  offset="0" style="stop-color:#00AEEF"/>
	<stop  offset="0.65" style="stop-color:#194E81"/>
	<stop  offset="1" style="stop-color:#181A36"/>
</radialGradient>
<path fill="url(#SVGID_4_)" d="M375.2,249.2h7.1v95.1H422v-95.1h45.9l25.8-33.4h-92.7L375.2,249.2L375.2,249.2z M331.2,249.2
	l25.8-33.4H239.3L208,322v22.3H332l25.6-33.1H248.2v-17.5h79.1l22.8-29.2h-102v-15.4L331.2,249.2L331.2,249.2z M84,319.9l-7.1,12.8
	c-2.2,4.1-5.2,7.4-8.7,9.8c-3.5,2.4-8,3.7-13.2,3.7c-5,0-9.5-1.5-13.6-4.3c-4.1-3-6.9-7.4-8.7-13.4L0,215.7h39.8L60.6,296l35.3-67.8
	c1.7-3.2,3.3-5.8,5-7.6c1.7-1.9,3.3-3.3,5.2-4.3c1.9-1.1,3.9-1.7,5.9-2s4.3-0.6,6.5-0.6c2.4,0,4.6,0.2,6.7,0.6c2,0.4,4.1,0.9,5.9,2
	c1.9,1.1,3.7,2.4,5.4,4.3c1.7,1.9,3.3,4.5,5,7.6l35.1,67.8l21-80.2h38.8l-33.3,113.1c-1.9,5.9-4.6,10.4-8.7,13.4s-8.5,4.3-13.6,4.3
	c-5.2,0-9.5-1.3-13-3.7s-6.5-5.8-8.9-10l-6.7-11.9c1.9-8.2,0.7-16.7-3.2-24.5c-4.5-9.3-9.8-18-14.9-26.9
	c-5.2-9.5-9.7-18.9-12.6-29.5l-3.7-13.4l-3.7,13.4c-3,10.6-7.4,19.9-12.6,29.3c-5,9.1-10.4,17.8-14.9,26.9
	C83.6,303.8,82.3,312.1,84,319.9L84,319.9z M343.8,249.2h-6.3l25.8-33.4h6.3L343.8,249.2L343.8,249.2z M356.5,249.2h-6.3l25.8-33.4
	h6.3L356.5,249.2L356.5,249.2z M368.9,249.2h-6.3l25.8-33.4h6.3L368.9,249.2z"/>
<radialGradient id="SVGID_5_" cx="132.65" cy="557.6212" r="120.7878" gradientTransform="matrix(1.8576 0 0 -1.8576 0 1247.0588)" gradientUnits="userSpaceOnUse">
	<stop  offset="0" style="stop-color:#00AEEF"/>
	<stop  offset="0.6" style="stop-color:#194E81"/>
	<stop  offset="1" style="stop-color:#181A36"/>
</radialGradient>
<path fill="url(#SVGID_5_)" d="M378.4,247.7h5.4v95.1h36.8v-95.1h46.8l23.4-30.3H402L378.4,247.7L378.4,247.7z M82.3,319.8
	c-1.5-8.2-0.2-16.7,3.5-24.1c4.5-9.3,9.8-18,14.9-27.1c5.2-9.3,9.7-18.8,12.4-29.2l5.2-18.8l5.2,18.8c2.8,10.4,7.2,19.9,12.4,29.2
	c5,8.9,10.4,17.8,14.9,27.1c3.9,7.8,5.2,16.5,3.3,25.1l6.3,11.5c2,3.7,4.8,7.1,8.5,9.5c3.5,2.4,7.8,3.3,12.1,3.3
	c4.6,0,8.9-1.3,12.6-4.1c4.3-3,6.7-7.6,8.2-12.4l32.7-111.1h-35.5l-21.7,82.8l-37.2-71.5c-1.1-2.6-2.8-5.2-4.8-7.2
	c-1.5-1.5-3.2-3-5-4.1c-1.7-0.9-3.5-1.5-5.4-1.9c-2.2-0.4-4.3-0.4-6.5-0.4c-2,0-4.3,0.2-6.3,0.4c-1.9,0.4-3.7,0.9-5.4,1.9
	c-1.9,1.1-3.5,2.4-4.8,4.1c-1.9,2-3.5,4.8-4.8,7.2L60,300.2l-21.4-83H2l32.1,111.1c1.5,5,3.9,9.5,8.2,12.4c3.7,2.8,8,4.1,12.6,4.1
	c4.5,0,8.7-0.9,12.3-3.5c3.5-2.4,6.3-5.6,8.4-9.5L82.3,319.8L82.3,319.8z M330.5,247.7h-84.1v18.6h100.3l-20.4,26.2h-79.9v20.6
	h107.7L330.8,343H209.3v-20.8l30.8-105h113.5L330.5,247.7L330.5,247.7z M343.1,247.7l23.4-30.3h-2.4l-23.4,30.3H343.1L343.1,247.7z
	 M355.5,247.7h-2.4l23.4-30.3h2.4L355.5,247.7L355.5,247.7z M368.2,247.7h-2.4l23.4-30.3h2.4L368.2,247.7z"/>
<radialGradient id="SVGID_6_" cx="63.7" cy="484.8227" r="13.3236" gradientTransform="matrix(1.8576 0 0 -1.8576 0 1247.0588)" gradientUnits="userSpaceOnUse">
	<stop  offset="0" style="stop-color:#00AEEF"/>
	<stop  offset="0.47" style="stop-color:#194E81"/>
	<stop  offset="1" style="stop-color:#181A36"/>
</radialGradient>
<path fill="url(#SVGID_6_)" d="M148,296.9c-9.7-19.7-21.5-34.7-27.5-56.7l-2-7.8l-2.2,7.8c-6.1,21.9-17.8,37-27.7,56.7
	c-5.6,11.3-5.2,23.6,1.1,33.6c6.1,9.8,16.9,15.8,28.6,15.8s22.3-5.9,28.6-15.8C153.3,320.5,153.6,308.2,148,296.9z"/>
<g>
	<g>
		<defs>
			<path id="SVGID_7_" d="M401.8,217.2l-23.4,30.5h5.4v10.4c13-3,25.3-6.1,36.8-9.7v-0.7h2.6c29-8.9,51.8-18.9,67.2-29.9l0.4-0.4
				h-89V217.2z M2,217.2l18.4,63.5c11.5,0.7,23.2,1.3,35.1,1.9l-16.9-65.4H2L2,217.2z M123.5,239.5c2.8,10.4,7.2,19.9,12.4,29.2
				c2.8,5,5.6,10,8.5,15c8-0.2,16-0.4,24-0.6l-28-54.4c-1.3-2.6-3-5.2-5-7.2c-1.5-1.5-3.2-3-5-4.1c-1.7-0.9-3.5-1.5-5.4-1.9
				c-2.2-0.4-4.3-0.4-6.5-0.4c-2,0-4.3,0.2-6.3,0.4c-1.9,0.4-3.7,0.9-5.4,1.9c-1.9,1.1-3.5,2.4-4.8,4.1c-1.9,2-3.5,4.8-4.8,7.2
				l-28,54.2c7.6,0.2,15.4,0.4,23.2,0.6c2.8-5,5.8-10,8.5-15c5.2-9.3,9.7-18.8,12.4-29.2l5.2-18.8L123.5,239.5L123.5,239.5z
				 M199.1,217.2L182,282.4c11.5-0.6,22.8-1.1,34-1.9l18.6-63.3H199.1L199.1,217.2z M240.4,217.2h113.5l-23.4,30.5h-84.1v18.6h96.6
				c-36.4,6.3-77.3,11.1-121.1,14.1L240.4,217.2z"/>
		</defs>
		<clipPath id="SVGID_8_">
			<use xlink:href="#SVGID_7_"  overflow="visible"/>
		</clipPath>
		<g clip-path="url(#SVGID_8_)">
		</g>
	</g>
</g>
<rect x="506.9" y="206.8" fill="#A8AAAD" width="2" height="146.4"/>
</svg>
