<?xml version="1.0" encoding="utf-8"?>
<!-- Generator: Adobe Illustrator 18.0.0, SVG Export Plug-In . SVG Version: 6.00 Build 0)  -->
<!DOCTYPE svg PUBLIC "-//W3C//DTD SVG 1.1//EN" "http://www.w3.org/Graphics/SVG/1.1/DTD/svg11.dtd">
<svg version="1.1" id="Layer_1" xmlns="http://www.w3.org/2000/svg" xmlns:xlink="http://www.w3.org/1999/xlink" x="0px" y="0px"
	 viewBox="0 0 516.8 78.8" enable-background="new 0 0 516.8 78.8" xml:space="preserve">
<linearGradient id="SVGID_1_" gradientUnits="userSpaceOnUse" x1="335.5239" y1="85.0822" x2="335.5239" y2="-61.6704">
	<stop  offset="0" style="stop-color:#181A36"/>
	<stop  offset="0.33" style="stop-color:#194E81"/>
	<stop  offset="1" style="stop-color:#00AEEF"/>
</linearGradient>
<path fill-rule="evenodd" clip-rule="evenodd" fill="url(#SVGID_1_)" d="M282.5,4.8l5.2,13.9h6.5L297,8.5l2.8,10.2h6.5l5.4-13.9
	h-4.5l-3.7,10.4h-0.8l-3.2-10.4h-5.1l-3.1,10.4h-0.8l-3.7-10.4H282.5L282.5,4.8z M327.8,18.6l-1.2-2.3h-9.2l-1.2,2.3h-4.8l7.3-13.9
	h6.6l7.3,13.9H327.8L327.8,18.6z M325.2,13.3L322.5,8h-0.8l-2.7,5.3H325.2L325.2,13.3z M332.6,4.8v3.5h6.2v10.3h4.4V8.3h6.2V4.8
	H332.6L332.6,4.8z M352.4,4.8v13.9h15.4v-3.3h-11.3v-2.2h10.6v-3.1h-10.6V8h11.2V4.8H352.4L352.4,4.8z M371.3,18.6h4.2v-3.5h6
	c1.7,0,2.1,0,2.3,0.4c0.3,0.4,0.4,0.9,0.4,2.4v0.7h4.2v-1.3c0.1-3.2-0.3-3.8-2.4-4.1c0.9-0.1,1.3-0.3,1.7-0.6
	c0.7-0.6,0.9-1.4,0.9-3.4c0-2.4-0.3-3.3-1.4-4c-0.9-0.5-0.9-0.5-5.7-0.5h-10.2V18.6L371.3,18.6z M375.5,11.7V8.2h5.9
	c2,0,2,0,2.3,0.2c0.4,0.2,0.6,0.6,0.6,1.5c0,0.9-0.1,1.3-0.5,1.5c-0.3,0.2-0.3,0.2-2.4,0.2H375.5z"/>
<linearGradient id="SVGID_2_" gradientUnits="userSpaceOnUse" x1="385.916" y1="41.4945" x2="385.916" y2="38.2486">
	<stop  offset="0" style="stop-color:#181A36"/>
	<stop  offset="0.33" style="stop-color:#194E81"/>
	<stop  offset="1" style="stop-color:#00AEEF"/>
</linearGradient>
<path fill-rule="evenodd" clip-rule="evenodd" fill="url(#SVGID_2_)" d="M283.7,32.9v13.9h15.4v-3.3h-11.3v-2.2h10.6v-3.1h-10.6v-2
	h11.2v-3.3H283.7L283.7,32.9z M302.6,32.9v13.9h4.3l-0.1-10.3h0.5l7.3,10.3h7.3V32.9h-4.3l0.1,10.3h-0.4L310,32.9H302.6L302.6,32.9z
	 M334.3,38.9v2.8h5.5c0,1.1-0.1,1.3-0.3,1.6c-0.4,0.4-1.2,0.4-4.8,0.4l-2.6,0c-1.1,0-1.5-0.1-1.8-0.4c-0.5-0.4-0.6-1.1-0.6-3.4
	c0-3.6,0-3.6,5-3.6c3.2,0,4.2,0.1,4.6,0.4c0.3,0.2,0.3,0.4,0.3,1.2h4.2c0-2-0.2-2.9-0.8-3.6c-0.9-1.1-2.8-1.4-8-1.4
	c-4.8,0-7.1,0.3-8.1,1c-1.2,0.8-1.5,2.2-1.5,5.9c0,4.6,0.2,5.6,1.5,6.4c1.2,0.8,2.7,1,7.4,1c3.7,0,5.2-0.1,6.7-0.4
	c1.7-0.3,2.6-1.3,2.7-2.9c0.1-0.7,0.1-3.1,0.1-4.4v-0.4H334.3L334.3,38.9z M347.8,32.9v13.9h4.4V32.9H347.8L347.8,32.9z M356.3,32.9
	v13.9h4.3l-0.1-10.3h0.5l7.3,10.3h7.3V32.9h-4.3l0.1,10.3H371l-7.3-10.3H356.3L356.3,32.9z M379.6,32.9v13.9h15.4v-3.3h-11.3v-2.2
	h10.6v-3.1h-10.6v-2H395v-3.3H379.6L379.6,32.9z M398.5,32.9v13.9h15.4v-3.3h-11.3v-2.2h10.6v-3.1h-10.6v-2h11.2v-3.3H398.5
	L398.5,32.9z M417.4,46.8h4.2v-3.5h6c1.7,0,2.1,0,2.3,0.4c0.3,0.4,0.4,0.9,0.4,2.4v0.7h4.2v-1.3c0.1-3.2-0.3-3.8-2.4-4.1
	c0.9-0.1,1.3-0.3,1.7-0.6c0.7-0.6,0.9-1.4,0.9-3.4c0-2.4-0.3-3.3-1.4-4c-0.9-0.5-0.9-0.5-5.7-0.5h-10.2V46.8L417.4,46.8z
	 M421.6,39.8v-3.4h5.9c2,0,2,0,2.3,0.2c0.4,0.2,0.6,0.6,0.6,1.5c0,0.9-0.1,1.3-0.5,1.5c-0.3,0.2-0.3,0.2-2.4,0.2H421.6L421.6,39.8z
	 M438.2,32.9v13.9h4.4V32.9H438.2L438.2,32.9z M446.7,32.9v13.9h4.3l-0.1-10.3h0.5l7.3,10.3h7.3V32.9h-4.3l0.1,10.3h-0.4l-7.3-10.3
	H446.7L446.7,32.9z M478.4,38.9v2.8h5.5c0,1.1-0.1,1.3-0.3,1.6c-0.4,0.4-1.2,0.4-4.8,0.4l-2.6,0c-1.1,0-1.5-0.1-1.8-0.4
	c-0.5-0.4-0.6-1.1-0.6-3.4c0-3.6,0-3.6,5-3.6c3.2,0,4.2,0.1,4.6,0.4c0.3,0.2,0.3,0.4,0.3,1.2h4.2c0-2-0.2-2.9-0.8-3.6
	c-0.9-1.1-2.8-1.4-8-1.4c-4.8,0-7.1,0.3-8.1,1c-1.2,0.8-1.5,2.2-1.5,5.9c0,4.6,0.2,5.6,1.5,6.4c1.2,0.8,2.7,1,7.4,1
	c3.7,0,5.2-0.1,6.7-0.4c1.7-0.3,2.6-1.3,2.7-2.9c0.1-0.7,0.1-3.1,0.1-4.4v-0.4H478.4z"/>
<linearGradient id="SVGID_3_" gradientUnits="userSpaceOnUse" x1="399.7677" y1="69.1868" x2="399.7677" y2="66.8877">
	<stop  offset="0" style="stop-color:#181A36"/>
	<stop  offset="0.33" style="stop-color:#194E81"/>
	<stop  offset="1" style="stop-color:#00AEEF"/>
</linearGradient>
<path fill-rule="evenodd" clip-rule="evenodd" fill="url(#SVGID_3_)" d="M282.8,61.1v3.5h6.2V75h4.4V64.6h6.2v-3.5H282.8L282.8,61.1
	z M302.6,61.1V75H318v-3.3h-11.3v-2.2h10.6v-3.1h-10.6v-2H318v-3.3H302.6L302.6,61.1z M334.8,69.6c0,2.1-0.1,2.1-4.7,2.1
	c-4.5,0-4.5-0.1-4.5-3.6c0-2.1,0.2-2.9,0.7-3.3c0.4-0.4,1.2-0.4,3.8-0.4c1,0,2.2,0,2.9,0.1c0.9,0.1,1.2,0.2,1.4,0.4
	c0.2,0.2,0.2,0.4,0.2,1.2h4.2v-0.7c0-2.3-0.5-3.3-1.7-3.9c-0.9-0.5-2.3-0.6-5.8-0.6c-7.1,0-8.7,0.4-9.5,2.1c-0.3,0.8-0.4,2-0.4,5.1
	c0,1.6,0,2.8,0.1,3.4c0.2,1.6,0.6,2.4,1.6,2.9c1.1,0.6,2.9,0.7,8.2,0.7c3.2,0,4.7-0.1,5.8-0.5c1.4-0.5,2-1.5,2-3.7
	c0-0.2,0-0.5,0-1.3H334.8L334.8,69.6z M342.6,61.1V75h4.4v-5h9.5v5h4.4V61.1h-4.4v5H347v-5H342.6L342.6,61.1z M365.1,61.1V75h4.3
	l-0.1-10.3h0.5L377,75h7.3V61.1h-4.3l0.1,10.3h-0.4l-7.3-10.3H365.1L365.1,61.1z M397.6,60.9c-5.8,0-7.1,0.2-8.1,1
	c-1,0.8-1.4,2.2-1.4,6.1c0,4.1,0.3,5.4,1.4,6.3c1.1,0.8,2.4,1,8.2,1c5.7,0,7-0.2,8.1-1c1.1-0.8,1.4-2.2,1.4-6.2c0-4-0.3-5.4-1.4-6.2
	C404.7,61.1,403.4,60.9,397.6,60.9L397.6,60.9z M397.6,64.5c3.9,0,4.4,0.1,4.8,0.7c0.4,0.5,0.5,1.3,0.5,3.3c0,1.7-0.1,2.3-0.6,2.7
	c-0.5,0.4-1.3,0.5-4.6,0.5c-3.4,0-4.2-0.1-4.7-0.5c-0.5-0.4-0.6-1-0.6-2.7c0-1.8,0.1-2.6,0.4-3.1C393.1,64.6,393.6,64.5,397.6,64.5
	L397.6,64.5z M410.9,61.1V75h14.3v-3.5h-9.9V61.1H410.9L410.9,61.1z M437.8,60.9c-5.8,0-7.1,0.2-8.1,1c-1,0.8-1.4,2.2-1.4,6.1
	c0,4.1,0.3,5.4,1.4,6.3c1.1,0.8,2.4,1,8.2,1c5.7,0,7-0.2,8.1-1c1.1-0.8,1.4-2.2,1.4-6.2c0-4-0.3-5.4-1.4-6.2
	C444.9,61.1,443.5,60.9,437.8,60.9L437.8,60.9z M437.8,64.5c3.9,0,4.4,0.1,4.8,0.7c0.4,0.5,0.5,1.3,0.5,3.3c0,1.7-0.1,2.3-0.6,2.7
	c-0.5,0.4-1.3,0.5-4.6,0.5c-3.4,0-4.2-0.1-4.7-0.5c-0.5-0.4-0.6-1-0.6-2.7c0-1.8,0.1-2.6,0.4-3.1C433.3,64.6,433.7,64.5,437.8,64.5
	L437.8,64.5z M459.5,67.1v2.8h5.5c0,1.1-0.1,1.3-0.3,1.6c-0.4,0.4-1.2,0.4-4.8,0.4l-2.6,0c-1.1,0-1.5-0.1-1.8-0.4
	c-0.5-0.4-0.6-1.1-0.6-3.4c0-3.6,0-3.6,5-3.6c3.2,0,4.2,0.1,4.6,0.4c0.3,0.2,0.3,0.4,0.3,1.2h4.2c0-2-0.2-2.9-0.8-3.6
	c-0.9-1.1-2.8-1.4-8-1.4c-4.8,0-7.1,0.3-8.1,1c-1.2,0.8-1.5,2.2-1.5,5.9c0,4.6,0.2,5.6,1.5,6.4c1.2,0.8,2.7,1,7.4,1
	c3.7,0,5.2-0.1,6.7-0.4c1.7-0.3,2.6-1.3,2.7-2.9c0.1-0.7,0.1-3.1,0.1-4.4v-0.4H459.5L459.5,67.1z M472.9,61.1V75h4.4V61.1H472.9
	L472.9,61.1z M481.4,61.1V75h15.4v-3.3h-11.3v-2.2h10.6v-3.1h-10.6v-2h11.2v-3.3H481.4L481.4,61.1z M499.8,70.4V71
	c0,2,0.3,2.8,1.4,3.4c1,0.6,2.7,0.7,6.9,0.7c4.3,0,6-0.1,6.8-0.5c1.4-0.5,1.9-1.7,1.9-4.1c0-2-0.4-2.9-1.4-3.5
	c-0.9-0.5-1.8-0.6-6.3-0.8c-3-0.1-4.1-0.1-4.5-0.2c-0.4-0.1-0.6-0.4-0.6-0.9c0-1,0.3-1.1,3.8-1.1c3.2,0,3.7,0,4,0.3
	c0.2,0.2,0.3,0.4,0.3,1.1h4.1c0-0.3,0-0.6,0-0.6c0-1.7-0.4-2.6-1.3-3.2c-1-0.6-2.5-0.8-6.3-0.8c-5,0-6.2,0.1-7.3,0.7
	c-1,0.5-1.5,1.8-1.5,3.8c0,1.4,0.2,2.3,0.8,2.9c0.6,0.7,1.6,1,3.6,1.1c0.4,0,1.8,0.1,3.4,0.1c1.5,0.1,2.8,0.1,3.3,0.1
	c1.4,0,1.7,0.2,1.7,1.1c0,0.6-0.1,0.9-0.5,1c-0.4,0.2-0.9,0.2-4.1,0.2c-3,0-3.4,0-3.8-0.3c-0.3-0.2-0.4-0.5-0.4-1.3H499.8z"/>
<radialGradient id="SVGID_4_" cx="132.9059" cy="73.0308" r="106.0312" gradientUnits="userSpaceOnUse">
	<stop  offset="0" style="stop-color:#00AEEF"/>
	<stop  offset="0.65" style="stop-color:#194E81"/>
	<stop  offset="1" style="stop-color:#181A36"/>
</radialGradient>
<path fill-rule="evenodd" clip-rule="evenodd" fill="url(#SVGID_4_)" d="M202,22.8h3.8V74h21.4V22.8h24.7l13.9-18h-49.9L202,22.8
	L202,22.8z M178.3,22.8l13.9-18h-63.4L112,62v12h66.7l13.8-17.8h-58.9v-9.4h42.6l12.3-15.7h-54.9v-8.3H178.3L178.3,22.8z M45.2,60.9
	l-3.8,6.9c-1.2,2.2-2.8,4-4.7,5.3c-1.9,1.3-4.3,2-7.1,2c-2.7,0-5.1-0.8-7.3-2.3c-2.2-1.6-3.7-4-4.7-7.2L0,4.8h21.4l11.2,43.2
	l19-36.5c0.9-1.7,1.8-3.1,2.7-4.1c0.9-1,1.8-1.8,2.8-2.3c1-0.6,2.1-0.9,3.2-1.1c1.1-0.2,2.3-0.3,3.5-0.3c1.3,0,2.5,0.1,3.6,0.3
	c1.1,0.2,2.2,0.5,3.2,1.1c1,0.6,2,1.3,2.9,2.3c0.9,1,1.8,2.4,2.7,4.1l18.9,36.5l11.3-43.2h20.9l-17.9,60.9c-1,3.2-2.5,5.6-4.7,7.2
	c-2.2,1.6-4.6,2.3-7.3,2.3c-2.8,0-5.1-0.7-7-2c-1.9-1.3-3.5-3.1-4.8-5.4l-3.6-6.4c1-4.4,0.4-9-1.7-13.2c-2.4-5-5.3-9.7-8-14.5
	c-2.8-5.1-5.2-10.2-6.8-15.9l-2-7.2l-2,7.2c-1.6,5.7-4,10.7-6.8,15.8c-2.7,4.9-5.6,9.6-8,14.5C45,52.2,44.3,56.7,45.2,60.9
	L45.2,60.9z M185.1,22.8h-3.4l13.9-18h3.4L185.1,22.8L185.1,22.8z M191.9,22.8h-3.4l13.9-18h3.4L191.9,22.8L191.9,22.8z M198.6,22.8
	h-3.4l13.9-18h3.4L198.6,22.8z"/>
<radialGradient id="SVGID_5_" cx="132.6115" cy="2.3788" r="120.8231" gradientUnits="userSpaceOnUse">
	<stop  offset="0" style="stop-color:#00AEEF"/>
	<stop  offset="0.6" style="stop-color:#194E81"/>
	<stop  offset="1" style="stop-color:#181A36"/>
</radialGradient>
<path fill-rule="evenodd" clip-rule="evenodd" fill="url(#SVGID_5_)" d="M203.7,22h2.9v51.2h19.8V22h25.2l12.6-16.3h-47.8L203.7,22
	L203.7,22z M44.3,60.8c-0.8-4.4-0.1-9,1.9-13c2.4-5,5.3-9.7,8-14.6c2.8-5,5.2-10.1,6.7-15.7l2.8-10.1l2.8,10.1
	c1.5,5.6,3.9,10.7,6.7,15.7c2.7,4.8,5.6,9.6,8,14.6c2.1,4.2,2.8,8.9,1.8,13.5l3.4,6.2c1.1,2,2.6,3.8,4.6,5.1
	c1.9,1.3,4.2,1.8,6.5,1.8c2.5,0,4.8-0.7,6.8-2.2c2.3-1.6,3.6-4.1,4.4-6.7l17.6-59.8h-19.1L95.5,50.3l-20-38.5
	C74.9,10.4,74,9,72.9,7.9c-0.8-0.8-1.7-1.6-2.7-2.2c-0.9-0.5-1.9-0.8-2.9-1c-1.2-0.2-2.3-0.2-3.5-0.2c-1.1,0-2.3,0.1-3.4,0.2
	c-1,0.2-2,0.5-2.9,1c-1,0.6-1.9,1.3-2.6,2.2c-1,1.1-1.9,2.6-2.6,3.9L32.3,50.3L20.8,5.6H1.1l17.3,59.8c0.8,2.7,2.1,5.1,4.4,6.7
	c2,1.5,4.3,2.2,6.8,2.2c2.4,0,4.7-0.5,6.6-1.9c1.9-1.3,3.4-3,4.5-5.1L44.3,60.8L44.3,60.8z M177.9,22h-45.3v10h54l-11,14.1h-43v11.1
	h58l-12.5,16.1h-65.4V62.1l16.6-56.5h61.1L177.9,22L177.9,22z M184.7,22l12.6-16.3H196L183.4,22H184.7L184.7,22z M191.4,22h-1.3
	l12.6-16.3h1.3L191.4,22L191.4,22z M198.2,22h-1.3l12.6-16.3h1.3L198.2,22z"/>
<radialGradient id="SVGID_6_" cx="63.7242" cy="75.1773" r="13.3222" gradientUnits="userSpaceOnUse">
	<stop  offset="0" style="stop-color:#00AEEF"/>
	<stop  offset="0.47" style="stop-color:#194E81"/>
	<stop  offset="1" style="stop-color:#181A36"/>
</radialGradient>
<path fill-rule="evenodd" clip-rule="evenodd" fill="url(#SVGID_6_)" d="M79.7,48.5C74.5,37.9,68.1,29.8,64.9,18l-1.1-4.2L62.6,18
	C59.3,29.8,53,37.9,47.7,48.5c-3,6.1-2.8,12.7,0.6,18.1c3.3,5.3,9.1,8.5,15.4,8.5c6.3,0,12-3.2,15.4-8.5
	C82.5,61.2,82.7,54.6,79.7,48.5z"/>
<g>
	<defs>
		<path id="SVGID_7_" d="M216.3,5.6L203.7,22h2.9v5.6c7-1.6,13.6-3.3,19.8-5.2V22h1.4c15.6-4.8,27.9-10.2,36.2-16.1l0.2-0.2H216.3
			L216.3,5.6z M1.1,5.6L11,39.8c6.2,0.4,12.5,0.7,18.9,1L20.8,5.6H1.1L1.1,5.6z M66.5,17.6c1.5,5.6,3.9,10.7,6.7,15.7
			c1.5,2.7,3,5.4,4.6,8.1c4.3-0.1,8.6-0.2,12.9-0.3L75.6,11.8C74.9,10.4,74,9,72.9,7.9c-0.8-0.8-1.7-1.6-2.7-2.2
			c-0.9-0.5-1.9-0.8-2.9-1c-1.2-0.2-2.3-0.2-3.5-0.2c-1.1,0-2.3,0.1-3.4,0.2c-1,0.2-2,0.5-2.9,1c-1,0.6-1.9,1.3-2.6,2.2
			c-1,1.1-1.9,2.6-2.6,3.9L37.2,41c4.1,0.1,8.3,0.2,12.5,0.3c1.5-2.7,3.1-5.4,4.6-8.1c2.8-5,5.2-10.1,6.7-15.7l2.8-10.1L66.5,17.6
			L66.5,17.6z M107.2,5.6L98,40.7c6.2-0.3,12.3-0.6,18.3-1l10-34.1H107.2L107.2,5.6z M129.4,5.6h61.1L177.9,22h-45.3v10h52
			c-19.6,3.4-41.6,6-65.2,7.6L129.4,5.6z"/>
	</defs>
	<clipPath id="SVGID_8_">
		<use xlink:href="#SVGID_7_"  overflow="visible"/>
	</clipPath>
	<g clip-path="url(#SVGID_8_)">
		
			<image overflow="visible" width="1097" height="154" xlink:href="CEFE021A3BBF2610.jpg"  transform="matrix(0.2397 0 0 0.2391 1.1148 4.4744)">
		</image>
	</g>
</g>
<rect x="272.9" y="0" fill-rule="evenodd" clip-rule="evenodd" fill="#A8AAAD" width="1.1" height="78.8"/>
</svg>
