<?xml version="1.0" encoding="utf-8"?>
<!-- Generator: Adobe Illustrator 18.0.0, SVG Export Plug-In . SVG Version: 6.00 Build 0)  -->
<!DOCTYPE svg PUBLIC "-//W3C//DTD SVG 1.1//EN" "http://www.w3.org/Graphics/SVG/1.1/DTD/svg11.dtd">
<svg version="1.1" id="Layer_1" xmlns="http://www.w3.org/2000/svg" xmlns:xlink="http://www.w3.org/1999/xlink" x="0px" y="0px"
	 viewBox="0 0 809.1 258.6" enable-background="new 0 0 809.1 258.6" xml:space="preserve">
<g>
	<g>
		<radialGradient id="SVGID_1_" cx="404.532" cy="211.2184" r="322.7318" gradientUnits="userSpaceOnUse">
			<stop  offset="0" style="stop-color:#00AEEF"/>
			<stop  offset="0.65" style="stop-color:#194E81"/>
			<stop  offset="1" style="stop-color:#181A36"/>
		</radialGradient>
		<path fill-rule="evenodd" clip-rule="evenodd" fill="url(#SVGID_1_)" d="M614.8,58.3h11.5v156h65.2v-156h75.3l42.2-54.8H657
			L614.8,58.3L614.8,58.3z M542.8,58.3L585,3.5h-193l-51.3,174.2v36.6h202.9l41.9-54.2H406.4v-28.7h129.5l37.5-47.9h-167V58.3H542.8
			L542.8,58.3z M137.5,174.4l-11.5,21c-3.7,6.8-8.6,12.1-14.3,16.2c-5.8,4.1-13,6.1-21.6,6.1c-8.2,0-15.6-2.4-22.2-7.1
			c-6.6-4.7-11.4-12-14.3-21.9L0,3.5h65.2l34,131.4l58-111.2c2.7-5.2,5.5-9.4,8.2-12.4c2.7-3,5.6-5.4,8.7-7.1c3-1.7,6.2-2.8,9.6-3.3
			c3.4-0.5,6.9-0.8,10.7-0.8c4,0,7.7,0.3,11,0.8c3.4,0.5,6.6,1.6,9.6,3.3c3,1.7,6,4,8.8,7.1c2.8,3,5.6,7.2,8.4,12.4l57.7,111.2
			L324.3,3.5h63.7l-54.5,185.3c-2.9,9.9-7.7,17.2-14.3,21.9c-6.6,4.7-14,7.1-22.2,7.1c-8.4,0-15.5-2-21.3-6
			c-5.8-4-10.8-9.4-14.7-16.4l-10.8-19.6c3.1-13.3,1.1-27.4-5.2-40.2c-7.4-15.1-16.2-29.4-24.3-44.2C212,75.7,204.7,60.3,200,43
			l-6-21.8L188,43c-4.7,17.2-12,32.7-20.6,48.2c-8.2,14.8-16.9,29.1-24.4,44.3C136.9,147.9,134.9,161.5,137.5,174.4L137.5,174.4z
			 M563.4,58.3h-10.3l42.2-54.8h10.3L563.4,58.3L563.4,58.3z M584,58.3h-10.3l42.2-54.8h10.3L584,58.3L584,58.3z M604.5,58.3h-10.3
			l42.2-54.8h10.3L604.5,58.3z"/>
		<radialGradient id="SVGID_2_" cx="403.6364" cy="-3.8289" r="367.7548" gradientUnits="userSpaceOnUse">
			<stop  offset="0" style="stop-color:#00AEEF"/>
			<stop  offset="0.6" style="stop-color:#194E81"/>
			<stop  offset="1" style="stop-color:#181A36"/>
		</radialGradient>
		<path fill-rule="evenodd" clip-rule="evenodd" fill="url(#SVGID_2_)" d="M620,55.7h8.8v156H689v-156h76.6L803.9,6H658.3L620,55.7
			L620,55.7z M134.8,174c-2.5-13.5-0.2-27.3,5.8-39.6c7.4-15.2,16.3-29.6,24.4-44.4c8.4-15.3,15.8-30.8,20.4-47.7l8.5-30.8l8.4,30.8
			c4.6,16.9,12,32.4,20.4,47.7c8.2,14.8,16.9,29.1,24.4,44.3c6.3,12.8,8.5,27.1,5.6,41l10.3,18.8c3.4,6.2,8,11.5,13.9,15.5
			c5.9,4.1,12.8,5.5,19.8,5.5c7.6,0,14.5-2.2,20.7-6.6c7-5,11-12.5,13.4-20.5L384.5,6h-58.3l-35.5,135.9L230,24.8
			c-2.1-4.1-4.8-8.5-8-11.9c-2.4-2.6-5.1-4.9-8.2-6.6c-2.7-1.5-5.7-2.5-8.8-3c-3.5-0.5-7.1-0.8-10.6-0.8c-3.4,0-6.9,0.2-10.3,0.8
			c-3.1,0.5-6,1.5-8.8,3c-3,1.7-5.7,4-8,6.6c-3.1,3.5-5.7,7.8-7.8,11.9L98.5,141.9L63.3,6H3.4l52.6,182c2.3,8.1,6.4,15.6,13.4,20.5
			c6.2,4.4,13.1,6.6,20.7,6.6c7.2,0,14.2-1.5,20.1-5.7c5.7-4,10.2-9.2,13.6-15.4L134.8,174L134.8,174z M541.6,55.7H403.8v30.3h164.3
			l-33.5,42.8H403.8v33.8h176.7l-38,49.1H343.4v-33.7L394,6h185.9L541.6,55.7L541.6,55.7z M562.1,55.7L600.4,6h-3.8l-38.3,49.7
			H562.1L562.1,55.7z M582.7,55.7h-3.8L617.2,6h3.8L582.7,55.7L582.7,55.7z M603.3,55.7h-3.8L637.7,6h3.8L603.3,55.7z"/>
		<radialGradient id="SVGID_3_" cx="193.9608" cy="217.7515" r="40.5495" gradientUnits="userSpaceOnUse">
			<stop  offset="0" style="stop-color:#00AEEF"/>
			<stop  offset="0.47" style="stop-color:#194E81"/>
			<stop  offset="1" style="stop-color:#181A36"/>
		</radialGradient>
		<path fill-rule="evenodd" clip-rule="evenodd" fill="url(#SVGID_3_)" d="M242.6,136.7c-15.9-32.4-35.3-56.9-45.2-92.9L194,31
			l-3.5,12.7c-9.9,36-29.3,60.6-45.2,92.9c-9.1,18.5-8.4,38.6,1.9,55.1c10.1,16.3,27.6,26,46.8,26c19.1,0,36.6-9.7,46.7-26
			C251,175.2,251.7,155.2,242.6,136.7z"/>
		<g>
			<defs>
				<path id="SVGID_4_" d="M658.3,6L620,55.7h8.8v17c21.4-4.9,41.5-10.1,60.1-15.7v-1.3h4.3c47.5-14.5,85-31,110.1-49.1l0.5-0.7
					H658.3L658.3,6z M3.4,6l30.1,104c18.8,1.2,38,2.2,57.5,2.9L63.3,6H3.4L3.4,6z M202.4,42.4c4.6,16.9,12,32.4,20.4,47.7
					c4.5,8.2,9.3,16.3,13.9,24.5c13.2-0.2,26.3-0.5,39.3-1L230,24.8c-2.1-4.1-4.8-8.5-8-11.9c-2.4-2.6-5.1-4.9-8.2-6.6
					c-2.7-1.5-5.7-2.5-8.8-3c-3.5-0.5-7.1-0.8-10.6-0.8c-3.4,0-6.9,0.2-10.3,0.8c-3.1,0.5-6,1.5-8.8,3c-3,1.7-5.7,4-8,6.6
					c-3.1,3.5-5.7,7.8-7.8,11.9l-46.4,89c12.6,0.4,25.2,0.7,38,0.9c4.6-8.2,9.4-16.4,13.9-24.6c8.4-15.3,15.8-30.8,20.4-47.7
					l8.5-30.8L202.4,42.4L202.4,42.4z M326.2,6l-27.9,106.8c18.8-0.8,37.4-1.7,55.6-2.9L384.5,6H326.2L326.2,6z M394,6h185.9
					l-38.3,49.7H403.8v30.3h158.3c-59.6,10.4-126.6,18.3-198.5,23.2L394,6z"/>
			</defs>
			<clipPath id="SVGID_5_">
				<use xlink:href="#SVGID_4_"  overflow="visible"/>
			</clipPath>
			<g clip-path="url(#SVGID_5_)">
				
					<image overflow="visible" width="3336" height="468" xlink:href="107FD9979381B908.jpg"  transform="matrix(0.24 0 0 0.2395 3.3939 2.5503)">
				</image>
			</g>
		</g>
		<linearGradient id="SVGID_6_" gradientUnits="userSpaceOnUse" x1="404.5318" y1="292.198" x2="404.5318" y2="177.3891">
			<stop  offset="0" style="stop-color:#181A36"/>
			<stop  offset="0.4" style="stop-color:#194E81"/>
			<stop  offset="1" style="stop-color:#00AEEF"/>
		</linearGradient>
		<path fill-rule="evenodd" clip-rule="evenodd" fill="url(#SVGID_6_)" d="M0,238.3l7.5,20H17l4-14.7l4,14.7h9.4l7.8-20h-6.4
			l-5.4,15h-1.1l-4.6-15h-7.3l-4.5,15h-1.1l-5.4-15H0L0,238.3z M65.4,258.3l-1.7-3.4H50.5l-1.7,3.4h-7l10.6-20h9.5l10.5,20H65.4
			L65.4,258.3z M61.5,250.6l-3.9-7.6h-1.2l-3.9,7.6H61.5L61.5,250.6z M72.2,238.3v5.1h8.9v14.9h6.4v-14.9h8.9v-5.1H72.2L72.2,238.3z
			 M100.8,238.3v20h22.2v-4.8h-16.2v-3.2h15.3v-4.4h-15.3V243H123v-4.7H100.8L100.8,238.3z M128,258.3h6.1v-5.1h8.6
			c2.5,0,3,0.1,3.4,0.5c0.5,0.5,0.6,1.2,0.6,3.5v1h6v-1.9c0.1-4.6-0.4-5.5-3.5-5.9c1.3-0.2,1.8-0.4,2.4-0.9c1-0.8,1.3-2,1.3-4.9
			c0-3.4-0.4-4.8-2-5.7c-1.3-0.8-1.3-0.8-8.2-0.8H128V258.3L128,258.3z M134.1,248.3v-4.9h8.6c2.8,0,2.9,0,3.3,0.2
			c0.6,0.3,0.8,0.9,0.8,2.2c0,1.3-0.2,1.9-0.7,2.2c-0.4,0.2-0.4,0.2-3.4,0.3H134.1L134.1,248.3z M165.5,238.3v20h22.2v-4.8h-16.2
			v-3.2h15.3v-4.4h-15.3V243h16.1v-4.7H165.5L165.5,238.3z M192.7,238.3v20h6.2l-0.2-14.9h0.7l10.5,14.9h10.6v-20h-6.2l0.1,14.9
			h-0.6l-10.5-14.9H192.7L192.7,238.3z M238.5,247v4h8c0,1.6-0.1,1.9-0.4,2.2c-0.6,0.5-1.7,0.6-6.9,0.6l-3.7-0.1
			c-1.6-0.1-2.1-0.2-2.6-0.6c-0.7-0.5-0.9-1.6-0.9-4.9c0-5.2,0-5.2,7.2-5.2c4.6,0,6,0.1,6.6,0.5c0.4,0.3,0.4,0.5,0.5,1.7h6.1
			c0-2.9-0.3-4.2-1.1-5.2c-1.3-1.6-4.1-2.1-11.5-2.1c-7,0-10.2,0.4-11.7,1.4c-1.7,1.2-2.2,3.2-2.2,8.6c0,6.6,0.3,8,2.1,9.2
			c1.7,1.1,3.8,1.4,10.7,1.4c5.4,0,7.5-0.1,9.6-0.5c2.4-0.5,3.7-1.9,3.9-4.2c0.1-1,0.2-4.4,0.2-6.4V247H238.5L238.5,247z
			 M257.9,238.3v20h6.4v-20H257.9L257.9,238.3z M270.2,238.3v20h6.2l-0.2-14.9h0.7l10.5,14.9H298v-20h-6.2l0.1,14.9h-0.6l-10.5-14.9
			H270.2L270.2,238.3z M303.8,238.3v20H326v-4.8h-16.2v-3.2h15.3v-4.4h-15.3V243h16.1v-4.7H303.8L303.8,238.3z M331,238.3v20h22.2
			v-4.8H337v-3.2h15.3v-4.4H337V243h16.1v-4.7H331L331,238.3z M358.2,258.3h6.1v-5.1h8.6c2.5,0,3,0.1,3.4,0.5
			c0.5,0.5,0.6,1.2,0.6,3.5v1h6v-1.9c0.1-4.6-0.4-5.5-3.5-5.9c1.3-0.2,1.8-0.4,2.4-0.9c1-0.8,1.3-2,1.3-4.9c0-3.4-0.4-4.8-2-5.7
			c-1.3-0.8-1.3-0.8-8.2-0.8h-14.7V258.3L358.2,258.3z M364.3,248.3v-4.9h8.6c2.8,0,2.9,0,3.3,0.2c0.6,0.3,0.8,0.9,0.8,2.2
			c0,1.3-0.2,1.9-0.7,2.2c-0.4,0.2-0.4,0.2-3.4,0.3H364.3L364.3,248.3z M388.2,238.3v20h6.4v-20H388.2L388.2,238.3z M400.5,238.3v20
			h6.2l-0.1-14.9h0.7l10.5,14.9h10.6v-20h-6.2l0.1,14.9h-0.6l-10.5-14.9H400.5L400.5,238.3z M446.2,247v4h8c0,1.6-0.1,1.9-0.4,2.2
			c-0.6,0.5-1.7,0.6-6.9,0.6l-3.7-0.1c-1.6-0.1-2.1-0.2-2.6-0.6c-0.7-0.5-0.9-1.6-0.9-4.9c0-5.2,0-5.2,7.2-5.2c4.6,0,6,0.1,6.6,0.5
			c0.4,0.3,0.4,0.5,0.5,1.7h6.1c0-2.9-0.3-4.2-1.1-5.2c-1.3-1.6-4.1-2.1-11.5-2.1c-7,0-10.2,0.4-11.7,1.4c-1.7,1.2-2.2,3.2-2.2,8.6
			c0,6.6,0.3,8,2.1,9.2c1.7,1.1,3.8,1.4,10.7,1.4c5.4,0,7.5-0.1,9.6-0.5c2.4-0.5,3.7-1.9,3.9-4.2c0.1-1,0.2-4.4,0.2-6.4V247H446.2
			L446.2,247z M471.7,238.3v5.1h8.9v14.9h6.4v-14.9h8.9v-5.1H471.7L471.7,238.3z M500.3,238.3v20h22.2v-4.8h-16.2v-3.2h15.3v-4.4
			h-15.3V243h16.1v-4.7H500.3L500.3,238.3z M546.7,250.6c0,3-0.1,3-6.8,3c-6.4,0-6.5-0.1-6.5-5.2c0-3,0.2-4.2,1-4.8
			c0.6-0.5,1.7-0.6,5.5-0.6c1.4,0,3.2,0.1,4.1,0.1c1.3,0.1,1.8,0.2,2,0.6c0.2,0.3,0.3,0.6,0.4,1.8h6.1v-1c0-3.3-0.7-4.8-2.5-5.6
			c-1.3-0.7-3.3-0.8-8.4-0.8c-10.2,0-12.5,0.5-13.7,3c-0.5,1.1-0.6,2.8-0.6,7.4c0,2.3,0.1,4,0.1,4.9c0.2,2.2,0.9,3.4,2.4,4.2
			c1.6,0.8,4.2,1.1,11.8,1.1c4.6,0,6.8-0.2,8.4-0.7c2.1-0.7,2.9-2.2,2.9-5.4c0-0.3,0-0.7-0.1-1.9H546.7L546.7,250.6z M558,238.3v20
			h6.4v-7.2h13.8v7.2h6.4v-20h-6.4v7.2h-13.8v-7.2H558L558,238.3z M590.4,238.3v20h6.2l-0.1-14.9h0.7l10.5,14.9h10.6v-20H612
			l0.1,14.9h-0.6L601,238.3H590.4L590.4,238.3z M637.3,238c-8.3,0-10.2,0.2-11.7,1.4c-1.5,1.2-2,3.2-2,8.8c0,5.8,0.4,7.9,2,9
			c1.5,1.1,3.5,1.4,11.8,1.4c8.2,0,10.2-0.2,11.7-1.4c1.5-1.2,2-3.2,2-8.9c0-5.7-0.4-7.7-2-8.9C647.5,238.3,645.6,238,637.3,238
			L637.3,238z M637.3,243.2c5.6,0,6.3,0.1,7,1c0.5,0.7,0.7,1.9,0.7,4.7c0,2.4-0.2,3.3-0.9,3.8c-0.8,0.6-1.9,0.7-6.7,0.7
			c-4.9,0-6-0.1-6.8-0.7c-0.7-0.6-0.9-1.4-0.9-3.9c0-2.6,0.1-3.7,0.5-4.5C630.8,243.3,631.4,243.2,637.3,243.2L637.3,243.2z
			 M656.5,238.3v20h20.6v-5.1h-14.2v-14.9H656.5L656.5,238.3z M695.2,238c-8.3,0-10.2,0.2-11.7,1.4c-1.5,1.2-2,3.2-2,8.8
			c0,5.8,0.4,7.9,2,9c1.5,1.1,3.5,1.4,11.8,1.4c8.2,0,10.2-0.2,11.7-1.4c1.5-1.2,2-3.2,2-8.9c0-5.7-0.4-7.7-2-8.9
			C705.4,238.3,703.5,238,695.2,238L695.2,238z M695.2,243.2c5.6,0,6.3,0.1,7,1c0.5,0.7,0.7,1.9,0.7,4.7c0,2.4-0.2,3.3-0.9,3.8
			c-0.8,0.6-1.9,0.7-6.7,0.7c-4.9,0-6-0.1-6.8-0.7c-0.7-0.6-0.9-1.4-0.9-3.9c0-2.6,0.1-3.7,0.5-4.5
			C688.7,243.3,689.3,243.2,695.2,243.2L695.2,243.2z M726.5,247v4h8c0,1.6-0.1,1.9-0.4,2.2c-0.6,0.5-1.7,0.6-6.9,0.6l-3.7-0.1
			c-1.6-0.1-2.1-0.2-2.6-0.6c-0.7-0.5-0.9-1.6-0.9-4.9c0-5.2,0-5.2,7.2-5.2c4.6,0,6,0.1,6.6,0.5c0.4,0.3,0.4,0.5,0.5,1.7h6.1
			c0-2.9-0.3-4.2-1.1-5.2c-1.3-1.6-4.1-2.1-11.5-2.1c-7,0-10.2,0.4-11.7,1.4c-1.7,1.2-2.2,3.2-2.2,8.6c0,6.6,0.3,8,2.1,9.2
			c1.7,1.1,3.8,1.4,10.7,1.4c5.4,0,7.5-0.1,9.6-0.5c2.4-0.5,3.7-1.9,3.9-4.2c0.1-1,0.2-4.4,0.2-6.4V247H726.5L726.5,247z
			 M745.9,238.3v20h6.4v-20H745.9L745.9,238.3z M758.1,238.3v20h22.2v-4.8h-16.2v-3.2h15.3v-4.4h-15.3V243h16.1v-4.7H758.1
			L758.1,238.3z M784.6,251.7v1c0,2.8,0.5,4,2,4.9c1.4,0.8,3.9,1.1,9.9,1.1c6.2,0,8.6-0.2,9.9-0.7c1.9-0.8,2.7-2.5,2.7-5.9
			c0-2.9-0.5-4.2-2-5.1c-1.3-0.7-2.6-0.9-9-1.1c-4.4-0.1-5.9-0.2-6.5-0.4c-0.6-0.2-0.8-0.6-0.8-1.3c0-1.5,0.4-1.6,5.5-1.6
			c4.6,0,5.3,0.1,5.8,0.4c0.3,0.3,0.4,0.6,0.4,1.6h5.9c0-0.4,0-0.8,0-0.9c0-2.5-0.5-3.7-1.8-4.6c-1.4-0.8-3.5-1.1-9.1-1.1
			c-7.2,0-9,0.2-10.5,1c-1.4,0.8-2.1,2.6-2.1,5.5c0,2,0.4,3.3,1.1,4.2c0.9,1,2.3,1.4,5.2,1.5c0.6,0,2.7,0.1,4.9,0.2
			c2.1,0.1,4.1,0.2,4.8,0.2c1.9,0,2.4,0.3,2.4,1.5c0,0.8-0.2,1.3-0.7,1.5c-0.6,0.2-1.3,0.3-5.9,0.3c-4.3,0-4.9-0.1-5.5-0.4
			c-0.5-0.3-0.6-0.7-0.6-1.9H784.6z"/>
	</g>
</g>
</svg>
